<?xml version="1.0" standalone="no"?>
   <!DOCTYPE svg PUBLIC "-//W3C//DTD SVG 1.1//EN" 
   "http://www.w3.org/Graphics/SVG/1.1/DTD/svg11.dtd"><svg id="svg" version="1.1" width="1926" height="825" xmlns="http://www.w3.org/2000/svg"><path d="M1721.946 88.144 C 1713.185 94.135,1701.210 106.440,1685.958 125.123 C 1684.331 127.116,1682.962 129.816,1682.917 131.123 C 1682.871 132.431,1678.666 138.900,1673.573 145.500 L 1664.314 157.500 1666.460 135.000 C 1671.021 87.195,1670.996 87.000,1660.300 87.000 C 1649.487 87.000,1639.606 99.933,1617.898 142.500 C 1606.959 163.950,1597.443 179.809,1596.752 177.743 C 1595.585 174.255,1606.241 132.339,1615.843 102.645 C 1621.109 86.361,1621.056 84.000,1615.426 84.000 C 1612.910 84.000,1609.691 87.038,1608.273 90.750 C 1602.044 107.061,1576.037 158.876,1566.865 173.250 C 1561.338 181.913,1558.234 189.000,1559.968 189.000 C 1561.702 189.000,1569.938 178.538,1578.269 165.750 C 1586.601 152.963,1594.547 142.092,1595.927 141.594 C 1597.307 141.096,1595.201 155.271,1591.246 173.094 C 1587.291 190.917,1583.145 211.575,1582.032 219.000 C 1580.211 231.146,1580.490 232.103,1584.811 228.543 C 1587.453 226.366,1590.480 220.644,1591.538 215.827 C 1592.596 211.010,1594.708 206.299,1596.231 205.357 C 1597.754 204.416,1599.046 201.363,1599.102 198.573 C 1599.158 195.783,1601.812 188.100,1605.000 181.500 C 1608.188 174.900,1610.842 168.075,1610.898 166.333 C 1610.954 164.591,1614.454 158.516,1618.676 152.833 C 1622.898 147.150,1629.722 135.830,1633.840 127.677 C 1637.959 119.524,1644.718 109.463,1648.862 105.320 C 1659.735 94.447,1662.378 100.859,1660.071 132.512 C 1659.028 146.818,1658.990 160.647,1659.986 163.243 C 1663.094 171.342,1675.797 162.778,1683.537 147.365 C 1695.825 122.896,1707.124 107.997,1719.149 100.406 C 1725.602 96.333,1732.835 93.000,1735.223 93.000 C 1740.745 93.000,1752.000 107.144,1752.000 114.084 C 1752.000 125.208,1771.986 126.160,1781.989 115.512 C 1791.072 105.844,1787.729 102.418,1777.253 110.658 C 1766.442 119.162,1761.519 118.645,1759.083 108.750 C 1756.878 99.799,1749.479 86.821,1744.569 83.296 C 1739.173 79.421,1732.663 80.815,1721.946 88.144 M1499.672 149.371 C 1492.067 155.492,1484.642 162.682,1483.172 165.349 C 1469.346 190.436,1464.446 200.859,1462.720 208.845 C 1460.497 219.136,1456.147 224.356,1436.757 240.000 C 1429.599 245.775,1421.218 253.381,1418.133 256.902 C 1415.048 260.423,1407.173 265.717,1400.633 268.666 C 1389.513 273.680,1388.416 273.702,1383.719 269.005 C 1376.891 262.177,1377.912 238.497,1386.378 207.375 C 1386.995 205.106,1385.892 202.658,1383.926 201.934 C 1379.346 200.247,1372.071 214.330,1367.906 232.944 C 1364.572 247.842,1349.437 274.617,1343.056 276.904 C 1341.100 277.605,1340.480 279.231,1341.678 280.517 C 1344.531 283.581,1352.007 277.244,1362.374 262.974 L 1370.747 251.449 1372.652 259.974 C 1376.757 278.342,1377.231 279.000,1386.351 279.000 C 1391.272 279.000,1399.618 276.818,1404.899 274.151 C 1417.939 267.565,1446.320 246.581,1452.683 238.821 C 1457.778 232.608,1457.868 232.712,1457.933 244.957 C 1457.993 256.110,1458.954 257.745,1467.114 260.590 C 1476.972 264.027,1488.360 260.830,1497.231 252.137 C 1499.833 249.586,1507.716 242.333,1514.748 236.017 C 1521.780 229.701,1526.803 223.803,1525.909 222.909 C 1525.016 222.016,1517.333 227.367,1508.836 234.800 C 1488.835 252.296,1481.211 256.205,1471.731 253.826 C 1464.936 252.121,1464.000 250.338,1464.000 239.099 C 1464.000 227.410,1465.568 224.775,1482.271 208.406 C 1503.834 187.272,1523.389 159.807,1525.935 147.077 C 1527.552 138.992,1526.971 138.013,1520.625 138.121 C 1516.706 138.188,1507.277 143.250,1499.672 149.371 M1236.000 144.338 C 1230.225 145.757,1211.325 150.194,1194.000 154.199 C 1176.675 158.203,1153.050 164.864,1141.500 169.000 C 1129.950 173.136,1117.125 176.966,1113.000 177.510 C 1106.220 178.405,1105.591 177.593,1106.445 169.048 C 1107.475 158.742,1102.501 153.299,1097.042 158.758 C 1095.152 160.648,1092.232 167.848,1090.553 174.759 C 1087.715 186.440,1086.444 187.648,1072.500 191.922 C 1064.250 194.451,1048.725 200.896,1038.000 206.244 C 1000.996 224.698,930.074 268.900,921.781 278.677 C 919.736 281.089,917.236 282.236,916.227 281.227 C 913.356 278.356,872.506 325.947,863.138 343.076 C 857.097 354.124,854.976 361.781,855.613 370.246 C 857.076 389.691,862.936 386.412,875.562 359.082 C 887.655 332.907,904.891 307.432,919.902 293.547 C 924.631 289.173,939.300 277.966,952.500 268.642 C 965.700 259.318,978.718 249.872,981.429 247.649 C 984.140 245.426,989.540 242.619,993.429 241.410 C 997.318 240.202,1003.875 236.860,1008.000 233.984 C 1017.107 227.636,1038.234 218.096,1054.500 212.987 C 1061.100 210.914,1067.850 208.239,1069.500 207.042 C 1071.150 205.846,1075.430 204.151,1079.012 203.276 C 1084.044 202.048,1085.292 202.886,1084.506 206.969 C 1082.568 217.032,1077.314 232.638,1065.809 262.500 C 1059.453 279.000,1050.969 302.273,1046.956 314.218 C 1040.484 333.486,1036.705 339.015,1013.460 363.231 C 975.780 402.486,959.999 435.883,962.465 471.147 C 963.640 487.945,1006.132 492.093,1039.486 478.668 C 1102.004 453.503,1194.170 381.661,1275.903 294.387 C 1315.725 251.864,1337.924 210.263,1338.688 176.727 C 1339.012 162.510,1338.180 160.492,1328.856 152.882 C 1323.254 148.310,1313.907 143.781,1308.085 142.818 C 1293.081 140.335,1248.463 141.276,1236.000 144.338 M1401.023 145.473 C 1398.890 148.042,1397.734 150.734,1398.454 151.454 C 1400.998 153.998,1413.230 149.190,1412.185 146.056 C 1410.429 140.786,1405.141 140.510,1401.023 145.473 M1306.279 153.211 C 1314.395 156.802,1321.723 162.499,1323.642 166.711 C 1325.469 170.720,1327.979 174.000,1329.220 174.000 C 1331.346 174.000,1330.831 182.243,1327.460 202.131 C 1325.046 216.376,1308.453 246.174,1290.503 268.500 C 1270.009 293.990,1203.132 360.507,1186.382 372.061 C 1179.717 376.658,1166.892 387.288,1157.882 395.684 C 1138.839 413.428,1081.619 452.670,1062.000 461.439 C 1014.495 482.673,1012.259 483.308,997.030 479.895 C 976.514 475.297,971.987 470.199,972.066 451.785 C 972.172 427.180,986.509 401.086,1018.377 367.500 C 1037.013 347.859,1036.193 347.043,1028.937 378.000 C 1024.378 397.451,1022.590 424.446,1025.366 431.912 C 1027.535 437.744,1028.589 433.365,1030.309 411.372 C 1031.512 395.998,1034.269 377.137,1036.436 369.460 C 1038.602 361.782,1041.210 351.812,1042.231 347.304 C 1043.994 339.521,1054.984 330.143,1115.069 285.149 C 1122.672 279.456,1127.342 274.281,1125.446 273.649 C 1121.584 272.361,1076.127 303.164,1065.893 314.003 C 1059.080 321.218,1053.000 323.168,1053.000 318.136 C 1053.000 314.301,1075.903 249.871,1081.308 238.500 C 1083.661 233.550,1089.309 220.492,1093.860 209.481 C 1101.811 190.244,1102.668 189.324,1115.817 185.910 C 1123.343 183.956,1149.513 175.751,1173.974 167.678 C 1198.435 159.605,1222.735 152.865,1227.974 152.701 C 1233.213 152.536,1240.875 151.321,1245.000 150.000 C 1260.326 145.092,1291.632 146.732,1306.279 153.211 M1515.000 156.000 C 1515.000 159.300,1513.650 162.000,1512.000 162.000 C 1510.350 162.000,1509.000 163.764,1509.000 165.920 C 1509.000 168.077,1501.581 176.987,1492.512 185.720 L 1476.025 201.600 1481.771 188.550 C 1487.800 174.860,1507.428 150.000,1512.209 150.000 C 1513.744 150.000,1515.000 152.700,1515.000 156.000 M699.830 392.250 C 697.156 398.438,694.463 412.275,693.846 423.000 C 692.293 450.000,691.114 454.216,682.128 464.895 C 673.450 475.208,674.605 481.003,683.698 472.774 C 689.219 467.777,689.505 467.954,691.404 477.542 C 698.234 512.040,706.481 512.717,730.442 480.750 C 740.027 467.963,748.384 454.800,749.013 451.500 C 750.005 446.294,749.689 446.393,746.620 452.250 C 744.675 455.963,742.173 459.000,741.062 459.000 C 739.950 459.000,733.227 467.024,726.122 476.832 C 710.998 497.708,706.793 500.075,700.582 491.207 C 692.248 479.308,694.757 464.111,707.776 447.641 C 728.838 420.995,731.620 381.000,712.411 381.000 C 706.358 381.000,703.645 383.426,699.830 392.250 M715.691 409.274 C 714.559 416.824,712.695 423.000,711.549 423.000 C 710.402 423.000,707.638 427.128,705.405 432.172 C 703.172 437.217,700.867 440.867,700.283 440.283 C 698.318 438.318,705.868 397.539,708.922 393.623 C 714.340 386.675,717.859 394.813,715.691 409.274 M613.500 399.097 C 610.200 400.579,603.952 404.876,599.617 408.646 C 589.959 417.042,564.017 459.520,563.954 467.040 C 563.915 471.661,563.463 471.808,561.009 468.000 C 559.414 465.525,558.818 456.075,559.686 447.000 C 561.933 423.489,561.997 422.308,561.473 414.107 C 561.025 407.100,560.730 406.985,555.811 411.903 C 551.208 416.506,550.666 423.942,551.001 477.796 C 551.208 511.183,550.163 549.975,548.678 564.000 C 545.248 596.398,545.173 708.242,548.576 717.440 C 550.158 721.719,551.300 699.613,551.545 659.945 C 552.160 560.519,558.731 489.000,567.252 489.000 C 568.908 489.000,569.869 487.286,569.388 485.190 C 567.531 477.103,596.249 417.386,602.288 416.777 C 603.504 416.654,607.375 416.013,610.890 415.351 C 616.022 414.384,617.646 415.978,619.140 423.449 C 623.785 446.676,619.472 475.528,609.927 485.073 C 600.286 494.714,590.860 517.291,589.133 534.879 C 588.244 543.936,588.756 552.113,590.270 553.049 C 591.785 553.985,597.111 551.095,602.105 546.626 C 611.671 538.066,616.332 525.238,619.775 498.000 C 621.606 483.517,623.647 479.701,636.466 466.786 C 652.960 450.169,653.955 446.467,638.952 457.535 C 633.387 461.641,628.274 465.000,627.590 465.000 C 626.906 465.000,627.197 453.863,628.236 440.250 C 630.113 415.670,627.773 398.574,622.336 397.146 C 620.776 396.737,616.800 397.614,613.500 399.097 M219.765 431.250 C 198.223 442.981,175.252 469.639,163.196 496.899 C 136.199 557.944,126.393 673.394,145.086 710.119 C 157.243 734.003,165.234 739.510,187.641 739.444 C 205.337 739.392,207.582 738.613,217.379 729.118 C 227.816 719.001,248.595 689.541,259.782 669.000 C 262.927 663.225,268.924 653.775,273.110 648.000 C 282.918 634.467,292.647 615.647,290.793 613.793 C 289.324 612.324,270.502 639.714,258.009 661.500 C 244.220 685.546,224.992 712.831,215.034 722.482 C 206.950 730.318,202.269 732.400,192.432 732.536 C 178.647 732.726,166.307 726.121,161.710 716.093 C 160.048 712.467,156.758 705.992,154.399 701.705 C 136.943 669.986,139.708 585.492,160.183 525.000 C 172.941 487.304,177.101 480.026,193.797 466.183 C 201.547 459.757,209.617 452.813,211.730 450.750 C 220.405 442.282,244.181 447.367,248.873 458.694 C 251.744 465.625,250.928 469.656,243.312 486.159 C 232.923 508.669,228.250 540.000,235.281 540.000 C 241.259 540.000,242.528 537.242,244.383 520.215 C 248.261 484.616,253.188 473.087,274.065 450.750 C 284.835 439.226,280.346 437.730,267.481 448.556 L 258.501 456.112 256.520 447.092 C 254.402 437.446,242.342 426.000,234.299 426.000 C 231.608 426.000,225.068 428.363,219.765 431.250 M434.155 441.293 C 429.186 444.186,428.910 449.900,430.228 522.625 C 431.529 594.364,433.478 611.522,439.627 605.373 C 440.577 604.423,442.012 597.088,442.817 589.073 C 445.879 558.572,456.258 523.797,467.084 507.765 L 477.709 492.031 493.105 493.612 C 504.938 494.827,511.276 493.779,520.500 489.080 C 531.327 483.565,531.620 483.136,523.500 484.698 C 497.326 489.730,495.270 489.648,487.118 483.236 L 478.992 476.843 470.766 484.724 C 463.078 492.090,444.000 538.866,444.000 550.350 C 444.000 552.908,442.650 555.000,441.000 555.000 C 437.482 555.000,437.405 547.022,440.840 538.500 C 442.170 535.200,442.264 531.150,441.048 529.500 C 439.832 527.850,439.930 517.050,441.265 505.500 C 444.377 478.576,444.669 437.973,441.750 438.091 C 440.513 438.141,437.095 439.582,434.155 441.293 M612.934 498.750 C 608.010 520.840,599.773 543.000,596.486 543.000 C 592.113 543.000,596.953 523.093,606.879 500.250 C 611.202 490.302,615.028 489.355,612.934 498.750 M328.048 512.250 C 313.305 528.118,301.607 559.711,298.130 593.047 C 296.611 607.615,297.275 611.690,302.149 617.702 C 306.707 623.325,309.725 624.468,315.911 622.916 C 328.847 619.669,347.965 596.869,353.991 577.500 C 359.515 559.748,362.520 558.440,364.815 572.792 C 367.026 586.621,377.454 601.373,386.732 603.799 C 393.185 605.487,411.000 595.944,411.000 590.799 C 411.000 588.991,406.329 590.397,400.621 593.925 C 382.289 605.255,374.477 593.937,369.611 549.000 C 368.450 538.275,366.173 529.757,364.550 530.071 C 362.928 530.386,359.985 536.461,358.011 543.571 C 348.314 578.494,327.982 615.000,318.228 615.000 C 313.029 615.000,306.000 599.825,306.000 588.601 C 306.000 565.073,327.920 513.000,337.824 513.000 C 340.338 513.000,345.121 514.459,348.454 516.243 C 356.238 520.409,358.369 518.164,354.138 510.257 C 349.375 501.358,337.312 502.280,328.048 512.250 " stroke="none" fill="black" fill-rule="evenodd"/></svg>